<?xml version="1.0" standalone="no"?>
<!DOCTYPE svg PUBLIC "-//W3C//DTD SVG 20010904//EN"
 "http://www.w3.org/TR/2001/REC-SVG-20010904/DTD/svg10.dtd">
<svg version="1.0" xmlns="http://www.w3.org/2000/svg"
 width="900.000000pt" height="800.000000pt" viewBox="0 0 900.000000 800.000000"
 preserveAspectRatio="xMidYMid meet">

<g transform="translate(0.000000,800.000000) scale(0.100000,-0.100000)"
fill="#000000" stroke="none">
<path d="M4290 7000 c-1076 -84 -2013 -712 -2481 -1665 -217 -443 -311 -844
-312 -1330 -1 -491 95 -901 314 -1345 290 -586 767 -1063 1354 -1351 447 -219
845 -312 1340 -312 485 0 886 94 1330 312 590 290 1066 766 1356 1356 219 446
312 845 312 1335 0 491 -95 896 -315 1340 -290 587 -763 1059 -1353 1350 -332
164 -612 248 -975 294 -151 19 -426 27 -570 16z m1648 -1241 c53 -20 53 -21
51 -808 -1 -473 2 -768 10 -846 25 -270 59 -470 121 -710 61 -238 106 -604 98
-805 -4 -111 -19 -156 -82 -239 -65 -86 -199 -151 -315 -151 -153 0 -304 96
-368 236 -49 108 -48 223 7 614 52 367 86 532 180 870 21 74 21 88 18 942 -2
827 -2 867 16 887 10 11 28 22 40 24 33 6 198 -5 224 -14z m-2199 -37 c12 -20
19 -702 10 -958 -7 -171 -13 -234 -28 -282 -51 -166 -165 -265 -344 -297 -94
-17 -105 -22 -112 -54 -3 -14 1 -166 9 -336 23 -466 35 -751 42 -1047 l7 -267
-26 -53 c-36 -72 -87 -103 -173 -102 -71 1 -112 20 -158 77 -29 36 -31 44 -34
140 -4 96 7 402 44 1236 14 316 14 365 2 378 -8 8 -43 18 -77 23 -140 20 -248
82 -316 185 -75 114 -74 104 -75 747 -1 315 2 581 6 591 4 10 16 23 28 27 12
5 283 8 604 7 477 -2 584 -4 591 -15z m612 -1218 c73 -22 127 -55 184 -113
l47 -48 67 44 c36 24 104 63 150 86 82 41 88 42 180 42 83 0 104 -4 153 -27
73 -34 142 -103 176 -176 32 -68 41 -177 22 -261 -36 -162 -203 -390 -424
-580 -78 -67 -254 -201 -294 -225 -26 -15 -292 192 -442 344 -221 224 -319
410 -308 585 10 149 108 279 248 328 59 21 172 21 241 1z"/>
<path d="M5783 3808 c-27 -35 -92 -1043 -80 -1249 7 -129 30 -183 84 -199 32
-10 46 -9 76 4 62 25 67 51 67 308 0 351 -48 1106 -71 1135 -14 17 -63 17 -76
1z"/>
<path d="M5931 3670 c-1 -8 10 -195 24 -415 14 -220 29 -476 33 -570 l7 -170
13 103 c16 140 15 351 -3 531 -16 151 -72 548 -74 521z"/>
<path d="M5671 3432 c-18 -130 -36 -280 -41 -332 -11 -111 -11 -400 -1 -480 7
-53 7 -54 14 -20 3 19 13 163 22 320 9 157 23 388 31 514 8 126 13 230 11 232
-2 2 -18 -103 -36 -234z"/>
<path d="M5596 3468 c-38 -175 -94 -557 -108 -734 -11 -136 -10 -157 6 -216
23 -87 75 -154 149 -192 31 -16 60 -26 64 -23 3 4 -8 26 -26 50 -63 83 -92
133 -109 187 -26 85 -20 297 22 699 19 190 34 346 32 348 -1 2 -15 -52 -30
-119z"/>
<path d="M6025 3465 c11 -100 35 -355 51 -555 13 -168 14 -220 4 -290 -13 -96
-50 -183 -104 -247 -37 -42 -46 -73 -23 -73 25 0 109 63 138 102 56 79 63 111
56 296 -7 199 -24 327 -78 602 -40 204 -56 260 -44 165z"/>
<path d="M2762 5472 c-17 -17 -19 -42 -24 -208 -2 -104 -2 -260 1 -347 5 -142
8 -160 25 -173 27 -19 70 -18 89 4 15 17 17 56 17 360 0 329 -1 343 -20 362
-25 25 -64 26 -88 2z"/>
<path d="M3094 5483 c-31 -22 -34 -55 -34 -376 0 -313 1 -325 21 -351 23 -29
55 -33 85 -12 18 14 19 31 22 353 3 373 1 386 -53 391 -17 1 -35 -1 -41 -5z"/>
<path d="M3399 5471 l-24 -19 -3 -299 c-2 -164 0 -317 3 -341 11 -75 70 -107
115 -62 19 19 20 33 20 360 0 327 -1 341 -20 360 -25 25 -61 26 -91 1z"/>
<path d="M3087 2624 c-21 -7 -47 -54 -47 -87 0 -42 36 -77 80 -77 53 0 68 8
86 42 18 35 11 78 -15 102 -20 18 -74 28 -104 20z"/>
</g>
</svg>
